<svg width="30" height="30" viewBox="0 0 30 30" fill="none" xmlns="http://www.w3.org/2000/svg">
<path d="M15.0002 7.5C19.7352 7.50014 23.7867 11.8562 25.4465 13.9287C25.8311 14.4089 26.0237 14.6489 26.0237 15C26.0237 15.3511 25.8311 15.5911 25.4465 16.0713C23.7867 18.1438 19.7352 22.4999 15.0002 22.5C10.2651 22.5 6.21278 18.1438 4.55298 16.0713C4.16848 15.5912 3.97583 15.3511 3.97583 15C3.97583 14.6489 4.16848 14.4088 4.55298 13.9287C6.21278 11.8562 10.2651 7.5 15.0002 7.5ZM15.0002 11.25C12.9292 11.25 11.2502 12.9289 11.2502 15C11.2502 17.0711 12.9292 18.75 15.0002 18.75C17.0712 18.7499 18.7502 17.071 18.7502 15C18.7502 12.929 17.0712 11.2501 15.0002 11.25Z" fill="#8C8C8C"/>
</svg>
