<svg width="30" height="30" viewBox="0 0 30 30" fill="none" xmlns="http://www.w3.org/2000/svg">
<path d="M11.9495 12.8203C11.5097 13.4347 11.2502 14.1868 11.2502 15C11.2502 17.0711 12.9292 18.75 15.0002 18.75C15.8133 18.75 16.5647 18.4895 17.179 18.0498L20.0686 20.9395C18.5453 21.8524 16.8239 22.4999 15.0002 22.5C10.4556 22.5 6.54001 18.4872 4.76489 16.332C4.27975 15.743 4.03735 15.4485 4.03735 15C4.03735 14.5515 4.27975 14.257 4.76489 13.668C5.65837 12.5832 7.09392 11.0274 8.87915 9.75L11.9495 12.8203ZM15.0002 7.5C19.5447 7.50014 23.4595 11.5128 25.2346 13.668C25.7198 14.2571 25.9631 14.5515 25.9631 15C25.9631 15.4485 25.7198 15.7429 25.2346 16.332C24.5878 17.1174 23.655 18.1471 22.5129 19.1416L18.7317 15.3604C18.743 15.2417 18.7502 15.1216 18.7502 15C18.7502 12.929 17.0712 11.2501 15.0002 11.25C14.8784 11.25 14.7578 11.2562 14.6389 11.2676L11.5911 8.21973C12.6665 7.77582 13.8117 7.5 15.0002 7.5Z" fill="#8C8C8C"/>
<path d="M6.25 2.5L26.25 22.5" stroke="#8C8C8C" stroke-width="2"/>
</svg>
