<svg width="50" height="50" viewBox="0 0 50 50" fill="none" xmlns="http://www.w3.org/2000/svg">
<path d="M4.1665 25L3.77607 24.6877L3.52619 25L3.77607 25.3124L4.1665 25ZM22.9165 25.5C23.1926 25.5 23.4165 25.2762 23.4165 25C23.4165 24.7239 23.1926 24.5 22.9165 24.5V25V25.5ZM12.4998 14.5833L12.1094 14.271L3.77607 24.6877L4.1665 25L4.55694 25.3124L12.8903 14.8957L12.4998 14.5833ZM4.1665 25L3.77607 25.3124L12.1094 35.729L12.4998 35.4167L12.8903 35.1043L4.55694 24.6877L4.1665 25ZM4.1665 25V25.5H22.9165V25V24.5H4.1665V25Z" fill="#8C8C8C"/>
<path d="M20.8335 16.9415V11.7218C20.8335 10.1035 20.8335 9.29432 21.3075 8.73483C21.7814 8.17534 22.5796 8.04231 24.1759 7.77626L38.8471 5.33106C42.0902 4.79054 43.7117 4.52028 44.7726 5.41898C45.8335 6.31767 45.8335 7.96159 45.8335 11.2494V38.7506C45.8335 42.0384 45.8335 43.6823 44.7726 44.581C43.7117 45.4797 42.0902 45.2094 38.8471 44.6689L24.1759 42.2237C22.5796 41.9577 21.7814 41.8246 21.3075 41.2652C20.8335 40.7057 20.8335 39.8965 20.8335 38.2782V33.4708" stroke="#8C8C8C"/>
</svg>